<svg width="131" height="26" viewBox="0 0 131 26" fill="none" xmlns="http://www.w3.org/2000/svg">
<path d="M124.974 1.33959H123.922V1.0625H126.345V1.33959H125.294V4.11054H124.974V1.33959Z" fill="white"/>
<path d="M130.007 1.0625V4.11054H129.687V1.70906L128.498 3.74109H128.361L127.172 1.70906V4.11054H126.852V1.0625H127.126L128.406 3.32545L129.687 1.0625H130.007Z" fill="white"/>
<path d="M35.3447 6.18662C35.9849 5.63243 36.6708 5.26297 37.4481 4.98587C38.1798 4.75496 39.0486 4.61642 40.0545 4.61642C41.0605 4.61642 41.9751 4.80115 42.8896 5.12443C43.7584 5.44771 44.5358 5.95571 45.2217 6.60226C46.0447 7.34118 46.6392 8.21866 47.0964 9.28086C47.5537 10.2969 47.7366 11.3591 47.7366 12.5136C47.7366 13.7144 47.508 14.8689 47.005 15.9311C46.502 16.9933 45.8161 17.917 44.9473 18.7483C44.3071 19.3025 43.5298 19.7643 42.7067 20.0876C41.8836 20.4108 40.9691 20.5494 40.0545 20.5494C39.1857 20.5494 38.3627 20.4108 37.5853 20.1337C36.808 19.8566 36.0763 19.441 35.3904 18.8868V20.1337H31.9609V0.136719H35.3904V6.18662H35.3447ZM35.4819 12.606C35.4819 13.8529 35.8934 14.8689 36.6708 15.7464C37.4939 16.5777 38.4541 17.0395 39.5973 17.0395C40.8776 17.0395 41.9751 16.6239 42.8439 15.7464C43.7127 14.9151 44.1242 13.8529 44.1242 12.5598C44.1242 11.3591 43.7127 10.2969 42.8439 9.4194C41.9751 8.54193 40.9691 8.08011 39.7802 8.08011C38.5456 8.08011 37.5396 8.49574 36.7165 9.37321C35.8934 10.2507 35.4819 11.3129 35.4819 12.606Z" fill="white"/>
<path d="M55.8755 8.03356C54.5037 8.12592 53.5892 8.49539 53.0405 9.09576C52.4918 9.69614 52.2174 10.8045 52.2174 12.3747V20.0872H48.7422V4.98551H51.9888V6.74045C52.5375 6.04771 53.0862 5.58588 53.7264 5.26261C54.3666 4.93933 55.0525 4.80078 55.8298 4.80078V8.03356H55.8755Z" fill="white"/>
<path d="M56.75 4.98828H60.4539L64.112 15.5641L68.1359 4.98828H71.7941L63.6547 24.9853H60.0423L62.1457 19.6743L56.75 4.98828Z" fill="white"/>
<path d="M83.3216 6.18593V0.0898438H86.7511V20.0869H83.3216V18.8399C82.6357 19.3941 81.9041 19.8098 81.1267 20.0869C80.3494 20.364 79.5263 20.5025 78.6575 20.5025C77.6972 20.5025 76.8284 20.364 76.0053 20.0407C75.1823 19.7174 74.4049 19.3018 73.7647 18.7014C72.8502 17.9163 72.1643 16.9926 71.6613 15.8843C71.1583 14.8221 70.9297 13.6675 70.9297 12.4668C70.9297 11.3584 71.1583 10.2962 71.6156 9.23398C72.0729 8.17178 72.713 7.3405 73.5361 6.5554C74.222 5.90885 74.9994 5.40083 75.8682 5.07756C76.737 4.75428 77.6972 4.56954 78.7032 4.56954C79.6635 4.56954 80.5323 4.7081 81.2639 4.93901C81.9955 5.26229 82.6814 5.63174 83.3216 6.18593ZM83.1844 12.6053C83.1844 11.3122 82.7729 10.25 81.9498 9.37252C81.1267 8.49506 80.1207 8.07942 78.9318 8.07942C77.743 8.07942 76.6912 8.54124 75.8682 9.41871C74.9994 10.2962 74.5878 11.3584 74.5878 12.5591C74.5878 13.8522 74.9994 14.9144 75.8682 15.7457C76.737 16.577 77.7887 17.0388 79.1147 17.0388C80.2579 17.0388 81.2182 16.6232 82.0413 15.7457C82.7729 14.8682 83.1844 13.806 83.1844 12.6053Z" fill="white"/>
<path d="M100.968 4.98733H104.077V17.5952C104.077 20.2276 103.391 22.2596 102.019 23.7836C100.647 25.2615 98.7269 26.0004 96.3034 26.0004C94.5201 26.0004 93.0111 25.5847 91.7765 24.7073C90.5418 23.8298 89.673 22.5829 89.0786 20.8741H92.4166C92.7824 21.5669 93.2854 22.0749 93.9713 22.4905C94.6572 22.86 95.3889 23.0447 96.2119 23.0447C97.5837 23.0447 98.7269 22.5829 99.5957 21.6592C100.465 20.7356 100.876 19.5348 100.876 18.057V17.9184C100.19 18.6112 99.4585 19.1654 98.5897 19.5348C97.7209 19.9043 96.8064 20.089 95.7547 20.089C94.7487 20.089 93.7884 19.9043 92.9196 19.581C92.0051 19.2115 91.2277 18.7497 90.5418 18.1032C89.8102 17.4104 89.2158 16.533 88.8042 15.5631C88.3927 14.5933 88.1641 13.5773 88.1641 12.5613C88.1641 10.2521 88.8957 8.40484 90.3132 6.88082C91.7307 5.40298 93.5598 4.66406 95.7547 4.66406C96.7607 4.66406 97.6752 4.84878 98.544 5.21824C99.4128 5.5877 100.19 6.1419 100.922 6.88082V4.98733H100.968ZM91.6393 12.2842C91.6393 13.6235 92.0966 14.6857 92.9654 15.6093C93.8342 16.4868 94.9316 16.9486 96.2119 16.9486C97.4008 16.9486 98.4068 16.4868 99.3214 15.6093C100.236 14.7318 100.647 13.6696 100.647 12.4689C100.647 11.1758 100.19 10.0674 99.3214 9.14376C98.4525 8.22011 97.4008 7.75828 96.1662 7.75828C94.9316 7.75828 93.8342 8.17393 92.9654 9.0514C92.0966 9.92887 91.6393 10.9911 91.6393 12.2842Z" fill="white"/>
<path d="M120.859 10.1122C120.63 9.32711 120.264 8.5882 119.807 7.94164C119.03 6.87945 118.069 6.00197 116.926 5.44778C115.783 4.8474 114.594 4.57031 113.314 4.57031C112.308 4.57031 111.302 4.80122 110.341 5.21686C109.381 5.67869 108.512 6.27907 107.735 7.11035C107.049 7.84927 106.5 8.68055 106.135 9.6042C105.769 10.5279 105.586 11.5439 105.586 12.5599C105.586 13.5759 105.769 14.5919 106.18 15.5618C106.592 16.5316 107.141 17.409 107.827 18.148C108.558 18.9331 109.427 19.5334 110.341 19.9029C111.302 20.3186 112.308 20.5033 113.405 20.5033C115.051 20.5033 116.515 20.0415 117.795 19.1178C119.075 18.1942 119.99 16.9472 120.63 15.2847H116.88C116.515 15.885 116.012 16.3469 115.417 16.6701C114.777 16.9934 114.091 17.1781 113.314 17.1781C112.125 17.1781 111.21 16.8549 110.433 16.2545C109.884 15.7927 109.473 15.1923 109.29 14.4534H107.278V13.6221H109.153H110.616H121.133C121.133 13.5297 121.133 13.3912 121.133 13.2526C121.133 13.0679 121.133 12.9755 121.133 12.8832C121.179 11.821 121.087 10.8973 120.859 10.1122ZM109.29 10.8511C109.564 9.92749 110.021 9.18857 110.753 8.5882C111.485 8.03401 112.308 7.7569 113.222 7.7569C114.274 7.7569 115.189 8.034 115.874 8.54201C116.56 9.05002 117.063 9.83512 117.383 10.8511H109.29Z" fill="white"/>
<path d="M15.6385 8.9594H4.29831C1.92053 8.9594 0 7.01974 0 4.61825V4.34115C0 1.93966 1.92053 0 4.29831 0H15.6385C18.0163 0 19.9368 1.93966 19.9368 4.34115V4.61825C19.8911 7.01974 17.9706 8.9594 15.6385 8.9594Z" fill="white"/>
<path d="M23.3651 20.0883H12.0249C9.64708 20.0883 7.72656 18.1486 7.72656 15.7472V15.4701C7.72656 13.0686 9.64708 11.1289 12.0249 11.1289H23.3651C25.7428 11.1289 27.6634 13.0686 27.6634 15.4701V15.7472C27.6176 18.1486 25.6971 20.0883 23.3651 20.0883Z" fill="white"/>
</svg>
